<?xml version="1.0" ?><!DOCTYPE svg  PUBLIC '-//W3C//DTD SVG 1.1//EN'  'http://www.w3.org/Graphics/SVG/1.1/DTD/svg11.dtd'><svg height="512px" style="enable-background:new 0 0 512 512;" version="1.1" viewBox="0 0 512 512" width="512px" xml:space="preserve" xmlns="http://www.w3.org/2000/svg" xmlns:xlink="http://www.w3.org/1999/xlink"><g id="_x32_86-rss"><g><g><g id="_x34_3-rss_9_"><g><g><path d="M161.969,413.146c0,34.716-28.065,62.853-62.692,62.853c-34.621,0-62.687-28.135-62.687-62.853        c0-34.722,28.066-62.86,62.687-62.86C133.904,350.289,161.969,378.425,161.969,413.146L161.969,413.146z" style="fill:#EF8321;"/><path d="M36.59,182.674v83.822c115.224,0,208.97,93.972,208.97,209.503h83.571        C329.131,314.271,197.891,182.674,36.59,182.674L36.59,182.674z" style="fill:#EF8321;"/><path d="M36.59,36.001v83.818c195.902,0,355.258,159.753,355.258,356.18h83.563        C475.41,233.375,278.567,36.001,36.59,36.001L36.59,36.001z" style="fill:#EF8321;"/></g></g></g></g></g></g><g id="Layer_1"/></svg>