<?xml version="1.0" encoding="UTF-8"?>
<svg id="svg8" width="512" height="512" version="1.1" viewBox="0 0 135.47 135.47" xmlns="http://www.w3.org/2000/svg" xmlns:cc="http://creativecommons.org/ns#" xmlns:dc="http://purl.org/dc/elements/1.1/" xmlns:rdf="http://www.w3.org/1999/02/22-rdf-syntax-ns#"><defs id="defs2"><linearGradient id="a" x1="46" x2="29" y1="11" y2="52" gradientUnits="userSpaceOnUse"><stop id="stop1671" stop-color="#2aabee" offset="0"/><stop id="stop1673" stop-color="#229ed9" offset="1"/></linearGradient></defs><metadata id="metadata5"><rdf:RDF><cc:Work rdf:about=""><dc:format>image/svg+xml</dc:format><dc:type rdf:resource="http://purl.org/dc/dcmitype/StillImage"/><dc:title/></cc:Work></rdf:RDF></metadata><g id="layer1" transform="translate(0 -161.53)"><g id="g1682" transform="matrix(1.7588 0 0 1.7588 6.8792 168.41)"><circle id="circle1678" cx="34.6" cy="34.6" r="34.6" fill="url(#a)"/><path id="path1680" d="m47.8 20.5s3.6-1.4 3.3 2c-0.1 1.4-1 6.3-1.7 11.6l-2.4 15.7s-0.2 2.3-2 2.7-4.5-1.4-5-1.8c-0.4-0.3-7.5-4.8-10-7-0.7-0.6-1.5-1.8 0.1-3.2l10.5-10c1.2-1.2 2.4-4-2.6-0.6l-14 9.5s-1.6 1-4.6 0.1l-6.5-2s-2.4-1.5 1.7-3c10-4.7 22.3-9.5 33.2-14z" fill="#fff"/></g></g><style id="style3" type="text/css">.st0{fill:#FF0000;}
	.st1{fill:#FFFFFF;}
	.st2{fill:#282828;}</style></svg>
