<?xml version="1.0" encoding="UTF-8"?>
<svg id="svg8" width="512" height="512" version="1.1" viewBox="0 0 135.47 135.47" xmlns="http://www.w3.org/2000/svg" xmlns:cc="http://creativecommons.org/ns#" xmlns:dc="http://purl.org/dc/elements/1.1/" xmlns:rdf="http://www.w3.org/1999/02/22-rdf-syntax-ns#"><metadata id="metadata5"><rdf:RDF><cc:Work rdf:about=""><dc:format>image/svg+xml</dc:format><dc:type rdf:resource="http://purl.org/dc/dcmitype/StillImage"/><dc:title/></cc:Work></rdf:RDF></metadata><g id="layer1" transform="translate(0 -161.53)"><g id="g5" transform="matrix(1.0025 0 0 1.0025 6.8792 186.66)"><path id="path7" class="st0" d="m118.9 13.3c-1.4-5.2-5.5-9.3-10.7-10.7-9.5-2.6-47.5-2.6-47.5-2.6s-38 0-47.5 2.5c-5.1 1.4-9.3 5.6-10.7 10.8-2.5 9.5-2.5 29.2-2.5 29.2s0 19.8 2.5 29.2c1.4 5.2 5.5 9.3 10.7 10.7 9.6 2.6 47.5 2.6 47.5 2.6s38 0 47.5-2.5c5.2-1.4 9.3-5.5 10.7-10.7 2.5-9.5 2.5-29.2 2.5-29.2s0.1-19.8-2.5-29.3z" fill="#f00"/><polygon id="polygon9" class="st1" points="48.6 60.7 80.2 42.5 48.6 24.3" fill="#fff"/></g></g><style id="style3" type="text/css">.st0{fill:#FF0000;}
	.st1{fill:#FFFFFF;}
	.st2{fill:#282828;}</style></svg>
