<?xml version="1.0" ?><!DOCTYPE svg  PUBLIC '-//W3C//DTD SVG 1.1//EN'  'http://www.w3.org/Graphics/SVG/1.1/DTD/svg11.dtd'><svg height="512px" style="enable-background:new 0 0 512 512;" version="1.1" viewBox="0 0 512 512" width="512px" xml:space="preserve" xmlns="http://www.w3.org/2000/svg" xmlns:xlink="http://www.w3.org/1999/xlink"><g id="_x31_21-facebook"><g><path d="M485.998,51.363v409.173c0,14.065-11.396,25.36-25.36,25.36H343.38V307.853h59.757l8.935-69.41    h-68.795v-44.357c0-20.125,5.545-33.78,34.397-33.78h36.759V98.184c-6.367-0.821-28.134-2.771-53.599-2.771    c-52.981,0-89.33,32.343-89.33,91.794v51.236h-59.963v69.41h59.963v178.146H51.363c-13.965,0-25.361-11.397-25.361-25.362V51.363    c0-13.965,11.396-25.362,25.361-25.362h409.172C474.603,26.001,485.998,37.398,485.998,51.363z" style="fill:#3B579D;"/></g></g><g id="Layer_1"/></svg>